<svg width="12" height="24" viewBox="0 0 11 23"><g fill="#222" fill-rule="evenodd" stroke="#222" stroke-width=".2"><path d="M8.066 8.378L6.955 9.624a.335.335 0 0 0 0 .436.26.26 0 0 0 .194.09c.07 0 .14-.03.194-.09L8.92 8.293c.054-.06.08-.14.08-.22a.32.32 0 0 0-.094-.232l-1.563-1.75a.255.255 0 0 0-.388 0 .334.334 0 0 0 0 .435l1.102 1.236h-5.49c-1.415 0-2.567 1.3-2.567 2.9v1.03c0 .17.123.308.275.308.152 0 .275-.138.275-.308v-1.03c0-1.259.905-2.284 2.018-2.284h5.498zM.934 14.622l1.11-1.246a.335.335 0 0 0 0-.436.26.26 0 0 0-.193-.09c-.07 0-.141.03-.195.09L.08 14.707a.325.325 0 0 0-.08.22.32.32 0 0 0 .093.232l1.563 1.75c.108.121.282.121.389 0a.334.334 0 0 0 0-.435L.942 15.238h5.49c1.416 0 2.567-1.3 2.567-2.9v-1.03c0-.17-.123-.308-.274-.308-.153 0-.275.138-.275.308v1.03c0 1.259-.905 2.284-2.018 2.284H.934z"></path></g></svg>