<svg width="18" height="18" viewBox="0 0 18 18"><path fill="#222" fill-rule="evenodd" d="M4.324.404c.328.457.689.979 1.081 1.565.393.586.818 1.236 1.275 1.95.117.188.167.4.15.634a1.834 1.834 0 0 1-.256.756c-.058.117-.158.304-.299.562L5.73 6.873c.247.352.56.744.94 1.178.382.433.824.902 1.328 1.406.516.516.987.964 1.415 1.345.428.38.812.694 1.151.94.399-.234.73-.425.994-.571.263-.147.454-.25.57-.308.142-.082.285-.143.432-.184.146-.041.284-.062.413-.062a1.066 1.066 0 0 1 .545.14c.527.317 1.084.672 1.67 1.064.585.393 1.212.824 1.88 1.292.118.082.211.188.282.317.07.129.117.27.14.422.012.164-.006.33-.052.5-.047.17-.13.343-.247.52a2.446 2.446 0 0 1-.21.298 19.35 19.35 0 0 1-.335.404c-.117.153-.269.325-.457.519-.187.193-.41.407-.668.641-.246.235-.471.41-.676.528-.205.117-.384.175-.536.175h-.036a6.392 6.392 0 0 1-1.916-.395 11.957 11.957 0 0 1-2.109-1.028 19.487 19.487 0 0 1-2.32-1.67 38.968 38.968 0 0 1-2.532-2.303A34.717 34.717 0 0 1 3.085 9.51a20.91 20.91 0 0 1-1.67-2.32A11.08 11.08 0 0 1 .387 5.07C.152 4.397.023 3.761 0 3.164 0 3 .059 2.815.176 2.61c.117-.205.293-.436.527-.694.235-.258.445-.478.633-.66.187-.18.357-.33.51-.447.14-.106.275-.205.404-.3.129-.093.24-.175.334-.245.129-.094.264-.161.404-.202C3.128.02 3.281 0 3.445 0c.188 0 .355.032.501.097a.947.947 0 0 1 .378.307zm-1.145.694a8.368 8.368 0 0 0-.688.538c-.223.194-.44.397-.652.609-.212.211-.38.394-.503.546a1.349 1.349 0 0 0-.238.389c.023.529.147 1.093.37 1.693.224.6.547 1.238.97 1.914.424.676.947 1.388 1.57 2.135a35.836 35.836 0 0 0 2.17 2.355 35.836 35.836 0 0 0 2.355 2.17 19.601 19.601 0 0 0 2.135 1.57c.676.423 1.317.746 1.923.97a6.12 6.12 0 0 0 1.702.388c.082-.035.2-.118.353-.247.153-.13.335-.3.547-.512.212-.211.411-.432.6-.661.188-.23.37-.462.547-.697a.417.417 0 0 0 .07-.132.19.19 0 0 0 0-.115 71.472 71.472 0 0 0-1.879-1.288c-.57-.376-1.085-.711-1.543-1.005-.047 0-.1.009-.159.026a1.231 1.231 0 0 0-.194.08c-.094.058-.27.158-.53.3l-1.005.546-.582.353-.582-.388c-.377-.259-.791-.59-1.244-.997-.453-.405-.95-.879-1.49-1.42a40.393 40.393 0 0 1-1.394-1.49c-.4-.453-.73-.868-.988-1.244l-.423-.547.352-.617a101.22 101.22 0 0 1 .847-1.535c.035-.07.062-.135.08-.194a.559.559 0 0 0 .026-.159c-.412-.647-.803-1.252-1.173-1.817a81.447 81.447 0 0 0-1.067-1.588h-.036a.48.48 0 0 0-.132.018.407.407 0 0 0-.115.053z"></path></svg>