<svg width="27" height="27" viewBox="0 0 27 27" fill="none" xmlns="http://www.w3.org/2000/svg"><path d="M20.445 6.1159C19.7525 5.42355 18.8133 5.03465 17.8341 5.03476C16.8549 5.03487 15.9157 5.424 15.2234 6.11648L11.9984 9.34145C11.3061 10.0338 10.9172 10.9729 10.9172 11.952C10.9172 12.9311 11.3061 13.8702 11.9984 14.5625C12.1937 14.7578 12.5103 14.7578 12.7055 14.5626C12.9008 14.3673 12.9008 14.0507 12.7056 13.8555C12.2008 13.3506 11.9172 12.6659 11.9172 11.952C11.9172 11.2381 12.2008 10.5534 12.7056 10.0485L15.9306 6.82351C16.4354 6.31856 17.1202 6.03484 17.8342 6.03476C18.5482 6.03468 19.233 6.31825 19.738 6.82309C20.2429 7.32792 20.5266 8.01267 20.5267 8.72669C20.5268 9.4407 20.2432 10.1255 19.7384 10.6305L17.3284 13.0404C17.1332 13.2357 17.1332 13.5523 17.3284 13.7475C17.5237 13.9428 17.8403 13.9428 18.0355 13.7475L20.4456 11.3375C21.1379 10.645 21.5268 9.70583 21.5267 8.72658C21.5266 7.74734 21.1375 6.80825 20.445 6.1159Z" fill="#222222"></path><path d="M14.7366 11.9045C14.5413 11.7092 14.2247 11.7092 14.0295 11.9044C13.8342 12.0997 13.8342 12.4163 14.0294 12.6115C14.5342 13.1164 14.8178 13.8011 14.8178 14.515C14.8178 15.2289 14.5342 15.9136 14.0294 16.4185L10.8044 19.6434L10.8014 19.6465C10.5522 19.9001 10.2553 20.1017 9.92776 20.2399C9.60023 20.3781 9.24857 20.45 8.89309 20.4515C8.53761 20.4531 8.18535 20.3842 7.85663 20.2489C7.52792 20.1136 7.22926 19.9145 6.97789 19.6631C6.72653 19.4117 6.52744 19.1131 6.39211 18.7844C6.25679 18.4556 6.18791 18.1034 6.18945 17.7479C6.19099 17.3924 6.26292 17.0408 6.40109 16.7132C6.53926 16.3857 6.74095 16.0888 6.99448 15.8396L9.40755 13.4265C9.60281 13.2313 9.60281 12.9147 9.40755 12.7194C9.21228 12.5242 8.8957 12.5242 8.70044 12.7194L6.29192 15.128C5.94495 15.4694 5.66892 15.876 5.47972 16.3245C5.29022 16.7737 5.19157 17.256 5.18946 17.7436C5.18734 18.2311 5.28181 18.7142 5.4674 19.165C5.653 19.6159 5.92605 20.0255 6.27078 20.3702C6.61552 20.7149 7.02513 20.988 7.47595 21.1736C7.92678 21.3592 8.4099 21.4536 8.89743 21.4515C9.38496 21.4494 9.86724 21.3508 10.3164 21.1613C10.7649 20.9721 11.1716 20.6961 11.513 20.3491L14.7366 17.1255C15.4289 16.4332 15.8178 15.4941 15.8178 14.515C15.8178 13.5359 15.4289 12.5968 14.7366 11.9045Z" fill="#222222"></path></svg>