<svg width="17" height="17" viewBox="0 0 17 17" fill="none" xmlns="http://www.w3.org/2000/svg"><path d="M7.49999 0H9.49998V3H7.49999V0Z"></path><path d="M14.9387 2.00014L16.3586 3.414L14.2275 5.53612L12.8251 4.11975L14.9387 2.00014Z"></path><path d="M2.06224 2.00514L4.18185 4.11875L2.76799 5.53861L0.645874 3.40749L2.06224 2.00514Z"></path><path fill-rule="evenodd" clip-rule="evenodd" d="M4.46447 6.46447C5.40215 5.52678 6.67392 5 8 5H9C10.3261 5 11.5979 5.52678 12.5355 6.46447C13.4732 7.40215 14 8.67392 14 10V16H17V17H0V16H3V10C3 8.67392 3.52678 7.40215 4.46447 6.46447ZM4 16H13V10C13 8.93913 12.5786 7.92172 11.8284 7.17157C11.0783 6.42143 10.0609 6 9 6H8C6.93913 6 5.92172 6.42143 5.17157 7.17157C4.42143 7.92172 4 8.93913 4 10V16Z"></path></svg>