<svg xmlns="http://www.w3.org/2000/svg" viewBox="0 0 86 19"><g fill="none" fill-rule="evenodd"><path fill="#326CF9" d="M0 0v12.546h8.865V8.962h-5.32V3.585h5.32V0zM11.524 0v7.17h3.546V3.584h3.546V0zM34.572 0v7.17h3.546V3.584h3.546V0zM28.367 0v2.688h-2.66V0h-3.545v12.546h9.75V0h-3.545zm-2.66 8.961h2.66V6.273h-2.66v2.688zM39.005 15.37a1.47 1.47 0 0 1-1.463-1.48 1.47 1.47 0 0 1 1.463-1.478 1.47 1.47 0 0 1 1.462 1.478 1.47 1.47 0 0 1-1.462 1.48m0-6.409c-2.693 0-4.876 2.207-4.876 4.93 0 2.722 2.183 4.928 4.876 4.928 2.692 0 4.875-2.206 4.875-4.929 0-2.722-2.183-4.929-4.875-4.929"/><path fill="#141414" d="M52.033 7.45c.27 0 .527-.02.771-.06.244-.04.462-.11.654-.212.192-.1.345-.24.458-.416.113-.176.17-.405.17-.687 0-.273-.057-.496-.17-.668a1.182 1.182 0 0 0-.451-.403 1.922 1.922 0 0 0-.64-.192 5.82 5.82 0 0 0-.74-.046h-1.203V7.45h1.151zm-2.798-4.085h3.02a6.52 6.52 0 0 1 1.439.145c.427.097.793.256 1.098.476.305.22.54.502.706.846.166.344.249.758.249 1.243 0 .52-.096.956-.288 1.308a2.348 2.348 0 0 1-.778.853 3.385 3.385 0 0 1-1.144.47 6.366 6.366 0 0 1-1.386.145h-1.269v3.873h-1.647v-9.36zM60.402 7.397c.235 0 .47-.018.706-.053s.447-.101.634-.198c.188-.097.343-.236.465-.417.121-.18.183-.412.183-.694 0-.255-.057-.465-.17-.628a1.272 1.272 0 0 0-.432-.39 1.796 1.796 0 0 0-.595-.198 4.148 4.148 0 0 0-.647-.053h-1.49v2.63h1.346zm-2.994-4.032h3.216c.436 0 .859.046 1.269.139.41.092.773.244 1.092.456.318.211.573.489.765.832.191.344.287.763.287 1.256 0 .679-.19 1.232-.568 1.66-.38.427-.896.716-1.55.865l2.472 4.151h-1.988l-2.145-3.966h-1.203v3.966h-1.647v-9.36zM67.176 8.018c0 .502.076.963.229 1.381.152.42.37.783.653 1.091.284.309.62.549 1.007.72.388.173.818.259 1.288.259.471 0 .903-.086 1.295-.258.392-.172.73-.412 1.014-.72.283-.31.5-.673.653-1.092.153-.418.23-.879.23-1.381 0-.484-.077-.934-.23-1.348a3.302 3.302 0 0 0-.647-1.084 3 3 0 0 0-1.007-.727 3.155 3.155 0 0 0-1.308-.265 3.014 3.014 0 0 0-2.301.991c-.28.31-.495.67-.647 1.085a3.872 3.872 0 0 0-.23 1.348m-1.79 0c0-.749.124-1.425.372-2.03a4.455 4.455 0 0 1 1.033-1.54c.44-.422.963-.748 1.57-.978a5.555 5.555 0 0 1 1.98-.343c.724 0 1.39.114 2.001.343a4.63 4.63 0 0 1 1.582.979c.445.423.792.936 1.04 1.54.249.604.373 1.28.373 2.029 0 .732-.124 1.4-.373 2.003a4.624 4.624 0 0 1-1.04 1.56 4.72 4.72 0 0 1-1.582 1.018 5.378 5.378 0 0 1-2 .363 5.288 5.288 0 0 1-1.982-.363 4.655 4.655 0 0 1-1.569-1.018 4.665 4.665 0 0 1-1.033-1.56 5.217 5.217 0 0 1-.373-2.003"/><g transform="translate(78.596 11.53)"><path fill="#326CF9" d="M3.564.124v3.584H.018v3.585H7.11V.123z"/></g></g></svg>