<svg xmlns="http://www.w3.org/2000/svg" viewBox="0 0 91 19"><g fill="none" fill-rule="evenodd"><path fill="#326CF9" d="M0 .19v12.423h8.817v-3.55h-5.29V3.74h5.29V.19zM11.462.19V7.29h3.527v-3.55h3.527V.19zM34.387.19V7.29h3.527v-3.55h3.527V.19zM28.215.19v2.662H25.57V.19h-3.527v12.423h9.699V.19h-3.527zM25.57 9.063h2.645V6.401H25.57v2.662z"/><g transform="translate(0 .017)"><path fill="#326CF9" d="M38.795 15.39a1.46 1.46 0 0 1-1.454-1.463 1.46 1.46 0 0 1 1.454-1.464 1.46 1.46 0 0 1 1.455 1.464 1.46 1.46 0 0 1-1.455 1.464m0-6.345c-2.678 0-4.85 2.185-4.85 4.88 0 2.696 2.172 4.881 4.85 4.881 2.679 0 4.85-2.185 4.85-4.88 0-2.696-2.171-4.88-4.85-4.88"/><path fill="#141414" d="M56.809 5.526h1.39v1.262h-1.39V9.54h-1.436V3.164h1.436v2.362zm-5.048 6.204v.275c0 .447.684.963 1.835.963 1.15 0 1.834-.516 1.834-.963v-.275c0-.447-.683-.963-1.834-.963s-1.835.516-1.835.963zm-1.413.367v-.459c0-1.227 1.31-2.052 3.248-2.052 1.937 0 3.247.825 3.247 2.052v.46c0 1.226-1.31 2.051-3.247 2.051-1.937 0-3.248-.825-3.248-2.052zm-.125-4.449h2.188V6.387h-2.188v1.261zm3.6 1.204H48.81V3.657h1.413v1.525h2.188V3.657h1.413v5.195zM60.193 3.75h7.315v1.226h-2.917v.092c0 .539.251.906.9 1.227.741.367 1.698.768 2.553 1.1l-.558 1.136c-.832-.333-1.653-.7-2.382-1.032-.66-.298-1.105-.574-1.219-.791h-.011c-.114.217-.616.516-1.277.814-.729.332-1.55.7-2.38 1.032l-.56-1.158a33.593 33.593 0 0 0 2.553-1.101c.65-.321.9-.688.9-1.227v-.092h-2.917V3.75zm8.512 5.389v1.226H64.58v3.464h-1.447v-3.464h-4.136V9.14h9.708z"/><path fill="#141414" d="M76.966 10.755H78.4v-7.59h-1.435v7.59zm-3.863 1.72h5.47v1.239h-6.917v-3.578h1.447v2.34zM71.28 6.123v.436c0 .688.524 1.318 1.379 1.318.854 0 1.378-.63 1.378-1.318v-.436c0-.688-.524-1.319-1.378-1.319-.855 0-1.379.63-1.379 1.319zm-1.356.539V6.02c0-1.296 1.037-2.466 2.735-2.466s2.734 1.17 2.734 2.466v.642c0 1.296-1.036 2.465-2.734 2.465s-2.735-1.17-2.735-2.465z" mask="url(#b)"/><path fill="#326CF9" d="M87.302 11.711v3.55h-3.527v3.549h7.054V11.71z"/></g></g></svg>