<svg width="22" height="22" viewBox="0 0 22 22" style="left: 14px;"><path fill="#9498A0" fill-rule="evenodd" d="M15.344 10.344h-2L16 7.688l2.688 2.656h-2c0 .96-.245 1.856-.736 2.688-.47.81-1.11 1.45-1.92 1.92a5.201 5.201 0 0 1-2.688.736c-.512 0-1.01-.075-1.496-.224a5.476 5.476 0 0 1-1.352-.624l.976-.96c.565.31 1.19.464 1.872.464.725 0 1.395-.179 2.008-.536a3.972 3.972 0 0 0 1.456-1.456 3.918 3.918 0 0 0 .536-2.008zm-9.344 0c0-.96.245-1.856.736-2.688.47-.81 1.11-1.45 1.92-1.92A5.201 5.201 0 0 1 11.344 5c.512 0 1.013.072 1.504.216.49.144.939.355 1.344.632l-.976.96a3.835 3.835 0 0 0-1.872-.464c-.725 0-1.395.179-2.008.536A3.972 3.972 0 0 0 7.88 8.336a3.918 3.918 0 0 0-.536 2.008h2L6.688 13 4 10.344h2z"></path></svg>