
  <svg width="22" height="19" viewBox="0 0 30 26">
    <g fill="none" fill-rule="evenodd">
      <g class="Svg__group" fill-rule="nonzero" fill="rgb(148, 152, 160)">
        <path d="M8 13.75a2.75 2.75 0 1 1 0-5.5 2.75 2.75 0 0 1 0 5.5zm0-1.5a1.25 1.25 0 1 0 0-2.5 1.25 1.25 0 0 0 0 2.5zM22 11.75a2.75 2.75 0 1 1 0-5.5 2.75 2.75 0 0 1 0 5.5zm0-1.5a1.25 1.25 0 1 0 0-2.5 1.25 1.25 0 0 0 0 2.5zM15 19.75a2.75 2.75 0 1 1 0-5.5 2.75 2.75 0 0 1 0 5.5zm0-1.5a1.25 1.25 0 1 0 0-2.5 1.25 1.25 0 0 0 0 2.5z"></path>
        <path d="M8.75 8.417V4.25a.75.75 0 0 0-1.5 0v4.167a.75.75 0 0 0 1.5 0zM15.75 14.69V4.25a.75.75 0 1 0-1.5 0v10.44a.75.75 0 0 0 1.5 0zM22.75 6.5V4.25a.75.75 0 1 0-1.5 0V6.5a.75.75 0 1 0 1.5 0zM8.75 21.564V13.25a.75.75 0 0 0-1.5 0v8.314a.75.75 0 0 0 1.5 0zM22.75 21.561V11.49a.75.75 0 1 0-1.5 0v10.071a.75.75 0 1 0 1.5 0zM15.75 21.56v-1.88a.75.75 0 1 0-1.5 0v1.88a.75.75 0 1 0 1.5 0z"></path>
      </g>
    </g>
  </svg>

